<?xml version="1.0" encoding="utf-8"?>
<!-- Generator: Adobe Illustrator 26.4.1, SVG Export Plug-In . SVG Version: 6.00 Build 0)  -->
<svg version="1.1" id="Layer_1" xmlns="http://www.w3.org/2000/svg" xmlns:xlink="http://www.w3.org/1999/xlink" x="0px" y="0px"
	 viewBox="0 0 627.5 108" style="enable-background:new 0 0 627.5 108;" xml:space="preserve">
<style type="text/css">
	.st0{fill:#0F1928;}
</style>
<g>
	<path class="st0" d="M49.6-0.1L0.1,20.4l0,0l28.4,11.8l21.1-8.7c2-0.8,3.5-2.9,3.5-4.6V1.6C53.1-0.1,51.6-0.9,49.6-0.1z"/>
	<path class="st0" d="M49.6,44.5l-10.1-4.2l-11-4.6L0.1,24v23.5l0,0l11,4.5l28.5,11.8L49.7,68c2,0.8,3.5,0.1,3.5-1.7V55.1v-6
		C53.1,47.4,51.6,45.3,49.6,44.5z"/>
	<path class="st0" d="M60.2,23.5l21.1,8.7l28.4-11.8l0,0L60.2-0.1c-2-0.8-3.5-0.1-3.5,1.7v17.3C56.7,20.6,58.3,22.7,60.2,23.5z"/>
	<path class="st0" d="M60.2,68.1l10.1-4.2l28.5-11.8l11-4.5l0,0V24L81.3,35.8l-11,4.6l-10.1,4.2c-2,0.8-3.5,2.9-3.5,4.6v6v11.3
		C56.7,68.1,58.3,68.9,60.2,68.1z"/>
	<polygon class="st0" points="39.5,67.2 11.1,55.5 0.1,60 0.1,60 28.5,71.8 	"/>
	<path class="st0" d="M49.6,84.1l-21.1-8.7L0.1,63.6v23.5l0,0l49.5,20.5c2,0.8,3.5,0.1,3.5-1.7V88.7C53.1,87,51.6,84.9,49.6,84.1z"
		/>
	<polygon class="st0" points="99,55.5 70.6,67.2 81.6,71.8 110,60 110,60 	"/>
	<path class="st0" d="M81.6,75.4l-21.1,8.7c-2,0.8-3.5,2.9-3.5,4.6V106c0,1.7,1.6,2.5,3.5,1.7L110,87.2l0,0V63.6L81.6,75.4z"/>
</g>
<path class="st0" d="M164,89.9l-20-71h13.8l12.8,52.2h0.7L185,18.9h12.6l13.7,52.2h0.6l12.8-52.2h13.8l-20,71h-12.7l-14.2-49.8H191
	l-14.2,49.8C176.8,89.9,164,89.9,164,89.9z"/>
<path class="st0" d="M239.9,89.9v-71h46.2v10.8h-33.3V49h30.9v10.8h-30.9v19.4h33.6V90L239.9,89.9L239.9,89.9z"/>
<path class="st0" d="M301,89.9h-13.7l25-71h15.9l25,71h-13.7l-19-56.4h-0.6L301,89.9z M301.5,62.1h37.4v10.3h-37.4V62.1z"/>
<path class="st0" d="M355.7,18.9l18.5,55.9h0.7l18.4-55.9h14.1l-25,71h-15.9l-25-71C341.5,18.9,355.7,18.9,355.7,18.9z"/>
<path class="st0" d="M409.5,89.9v-71h46.2v10.8h-33.3V49h30.9v10.8h-30.9v19.4H456V90L409.5,89.9L409.5,89.9z"/>
<path class="st0" d="M461.5,89.9v-71h26.6c5.5,0,10,0.9,13.7,2.8c3.7,1.9,6.5,4.5,8.4,8c1.9,3.4,2.9,7.4,2.9,11.9
	c0,4.6-1,8.5-2.9,11.8s-4.8,5.9-8.5,7.7s-8.3,2.7-13.8,2.7h-19V53.2h17.2c3.2,0,5.8-0.4,7.8-1.3c2-0.9,3.5-2.2,4.5-3.9
	s1.5-3.8,1.5-6.4c0-2.5-0.5-4.7-1.5-6.5s-2.5-3.2-4.5-4.1s-4.7-1.4-7.9-1.4h-11.8v60.2L461.5,89.9L461.5,89.9z M498.1,57.7
	l17.6,32.2h-14.3l-17.3-32.2H498.1z"/>
<path class="st0" d="M556.2,38.4c-0.3-3-1.7-5.4-4.1-7.1c-2.4-1.7-5.5-2.5-9.3-2.5c-2.7,0-5,0.4-6.9,1.2c-1.9,0.8-3.4,1.9-4.4,3.3
	s-1.5,3-1.6,4.7c0,1.5,0.3,2.8,1,3.8c0.7,1.1,1.6,2,2.8,2.8s2.5,1.4,3.9,1.9s2.9,0.9,4.3,1.3l6.7,1.7c2.7,0.6,5.3,1.5,7.7,2.5
	c2.5,1.1,4.7,2.4,6.7,4s3.5,3.6,4.7,5.9c1.2,2.3,1.7,5,1.7,8c0,4.2-1.1,7.8-3.2,11c-2.1,3.2-5.2,5.6-9.2,7.4s-8.9,2.7-14.5,2.7
	c-5.5,0-10.3-0.9-14.4-2.6c-4.1-1.7-7.2-4.2-9.5-7.5s-3.5-7.3-3.7-12h12.6c0.2,2.5,0.9,4.5,2.3,6.2c1.3,1.6,3.1,2.9,5.2,3.7
	c2.2,0.8,4.6,1.2,7.3,1.2c2.8,0,5.2-0.4,7.4-1.3c2.1-0.8,3.8-2,5-3.5s1.8-3.3,1.8-5.3c0-1.8-0.6-3.4-1.6-4.6c-1.1-1.2-2.5-2.2-4.5-3
	c-1.9-0.8-4.1-1.6-6.7-2.2l-8.1-2.1c-5.8-1.5-10.5-3.8-13.8-6.8c-3.4-3.1-5.1-7.1-5.1-12.2c0-4.2,1.1-7.8,3.4-11
	c2.3-3.1,5.4-5.6,9.3-7.3c3.9-1.7,8.4-2.6,13.3-2.6c5,0,9.5,0.9,13.3,2.6s6.8,4.2,9,7.2c2.2,3.1,3.3,6.6,3.4,10.6L556.2,38.4
	L556.2,38.4z"/>
<path class="st0" d="M573.7,89.9v-71h46.2v10.8h-33.3V49h30.9v10.8h-30.9v19.4h33.6V90L573.7,89.9L573.7,89.9z"/>
</svg>
